<svg width="40" height="32" viewBox="0 0 40 32" fill="none" xmlns="http://www.w3.org/2000/svg">
<path d="M36.5985 0.0185807L32.1068 2.61053C31.4605 2.97493 30.9617 3.5534 30.6963 4.24619C30.4309 4.93897 30.4155 5.70266 30.6528 6.40556C31.6537 9.2643 31.6255 12.3827 30.5729 15.2229C29.5204 18.063 27.5097 20.4467 24.8876 21.9629C22.2655 23.479 19.1964 24.0324 16.2099 23.5277C13.2233 23.0229 10.5066 21.4917 8.52836 19.1981C8.03859 18.6355 7.36795 18.2614 6.63198 18.1401C5.896 18.0189 5.14078 18.1581 4.49643 18.5339L0 21.1304C1.36223 23.582 3.19878 25.738 5.40262 27.4726C7.60645 29.2072 10.1335 30.4859 12.8365 31.2341C15.5395 31.9823 18.3643 32.185 21.1464 31.8304C23.9286 31.4759 26.6123 30.5711 29.0412 29.169C31.4702 27.7668 33.5958 25.8952 35.2941 23.6632C36.9924 21.4313 38.2295 18.8836 38.9334 16.1688C39.6372 13.4539 39.7936 10.6261 39.3936 7.85016C38.9935 5.07422 38.045 2.40566 36.6032 0L36.5985 0.0185807Z" fill="url(#paint0_radial_0_1)"/>
<path d="M18.3877 15.6167C21.0814 15.6167 23.265 13.433 23.265 10.7393C23.265 8.04565 21.0814 5.862 18.3877 5.862C15.694 5.862 13.5104 8.04565 13.5104 10.7393C13.5104 13.433 15.694 15.6167 18.3877 15.6167Z" fill="url(#paint1_linear_0_1)"/>
<defs>
<radialGradient id="paint0_radial_0_1" cx="0" cy="0" r="1" gradientUnits="userSpaceOnUse" gradientTransform="translate(28.8413 28.1584) scale(27.039)">
<stop stop-color="#1E88E5"/>
<stop offset="0.7" stop-color="#0DCEB6"/>
<stop offset="1" stop-color="#07E5A6"/>
</radialGradient>
<linearGradient id="paint1_linear_0_1" x1="12.9437" y1="6.29864" x2="22.2338" y2="13.884" gradientUnits="userSpaceOnUse">
<stop stop-color="#1E88E5"/>
<stop offset="0.69" stop-color="#0DCEB6"/>
<stop offset="1" stop-color="#07E5A6"/>
</linearGradient>
</defs>
</svg>
